<svg width="1879" height="791" viewBox="0 0 1879 791" fill="none" xmlns="http://www.w3.org/2000/svg">
<path d="M1614.2 424.068H1654.42V784.023H550.075V517.035V371.341H561.045V468.47H706.098V214.546H859.682V174.307H885.28V160.431H898.688V174.307H921.848V214.546H954.759V662.729H991.327V77.1771H1036.43V0.861023H1066.9V23.0621H1080.31V77.1771H1125.41V704.356H1272.9V381.054V288.087H1331.41V354.69H1402.11H1442.33V540.624H1614.2V424.068Z" fill="#5A0161"/>
<path d="M85.6953 370.134V565.619V784.023H1879V420.016H1789.33V407.883H1776.69V420.016H1749.1V434.846V510.344L1722.66 604.716V370.134H1681.28V349.911H1662.88V370.134H1636.44V568.315H1593.91L1603.11 434.846H1587.01V293.288H1559.42V147.685H1480.1V293.288H1465.16V441.587H1446.77V491.469H1407.68V293.288H1388.14V184.086H1377.79V349.911H1272.04V370.134H1250.19V309.466H1203.06V147.685H1157.08V119.373H1122.59V678.865H998.441V293.288H950.16V678.865H912.225V74.8838H903.028V678.865H866.243V74.8838H848.999V201.612H824.859V686.955H752.437V208.353H732.894V43.8758H642.08V208.353H612.191V378.223H588.05V686.955H543.218V300.029H514.479V283.851H497.236V300.029H458.151V659.991H419.066V353.956H386.878V344.519H373.084V353.956H321.354V624.939H182.258V370.134H128.229V320.251H96.0412V370.134H85.6953Z" fill="#BE3571"/>
<path d="M0 509.913V564.167V791H1879V527.541H1708.08L1673.38 534.158V545.739H1631.19V527.541H1576.07V490.318L1533.2 437.378L1473.32 505.207V623.493H1448.83V716.138H1439.98L1422.97 681.396V598.678H1382.82V681.396H1359.01V691.322H1317.5V623.493H1306.61V606.95H1265.79V623.493H1243.33V598.678L1226.32 573.035H1190.94L1175.97 598.678V670.643H1150.11V637.555H1122.21V505.207L1086.83 461.366L1056.21 490.318V515.133H1031.03L1016.74 534.158H999.731V563.109H984.761V623.493L969.111 645.827V606.95L962.987 589.579H941.893L935.769 606.95V670.643H924.202V633.42H914.675V534.158H903.788V482.873H820.093V680.569H808.525V666.507H792.195V676.433H771.781V689.668H757.492V598.678H750.007V580.48H743.883V563.109L730.274 542.43H711.902L699.654 563.109V580.48H692.169V598.678H677.199V623.493H669.033V527.541H554.038V505.207H545.872V460.539H532.263V505.207H524.778V553.183H520.015V666.507H504.365V428.279H424.072V472.12H393.452V518.442H375.76V684.705H353.305V573.035L330.85 553.183V518.442H296.828V497.762H268.93V477.91H234.907V490.318H208.37V518.442H160.738V640.864H153.934V598.678L115.829 567.245H60.7124V523.405H38.2544V509.913H0Z" fill="#2B004F"/>
</svg>
